<svg xmlns="http://www.w3.org/2000/svg" viewBox="0 0 64 64" id="eye">
  <defs>
    <linearGradient id="a" x1="4" x2="60" y1="32" y2="32" gradientUnits="userSpaceOnUse">
      <stop offset="0" stop-color="#ffde00"></stop>
      <stop offset="1" stop-color="#fd5900"></stop>
    </linearGradient>
  </defs>
  <path fill="url(#a)" d="M59.75247,31.3299C42.421,13.05462,21.48365,13.15,4.24754,31.33039a1.03,1.03,0,0,0,0,1.33965c17.33153,18.27536,38.2688,18.18,55.50493-.00049A1.03,1.03,0,0,0,59.75247,31.3299ZM32,44.50111C19.60888,44.50111,9.03794,34.68023,6.37773,32,9.03794,29.31977,19.60888,19.49889,32,19.49889S54.96206,29.31977,57.62227,32C54.96206,34.68023,44.39112,44.50111,32,44.50111Zm-.00013-20.15182C42.12366,24.70462,42.12632,39.29377,32,39.65064a7.65068,7.65068,0,0,1-.00013-15.30135Z"></path>
</svg>
