<svg width="31" height="29" viewBox="0 0 31 29" fill="none" xmlns="http://www.w3.org/2000/svg">
<path d="M21.6395 2.43144C23.2706 2.43617 24.8336 3.06773 25.987 4.18819C27.1404 5.30865 27.7906 6.82695 27.7954 8.41151V20.3704C27.7906 21.9549 27.1404 23.4732 25.987 24.5937C24.8336 25.7142 23.2706 26.3457 21.6395 26.3504H9.32888C7.69772 26.3457 6.13475 25.7142 4.98134 24.5937C3.82793 23.4732 3.1778 21.9549 3.17292 20.3704V8.41151C3.1778 6.82695 3.82793 5.30865 4.98134 4.18819C6.13475 3.06773 7.69772 2.43617 9.32888 2.43144H21.6395ZM21.6395 0.0397949H9.32888C4.58891 0.0397949 0.710938 3.80697 0.710938 8.41151V20.3704C0.710938 24.9749 4.58891 28.7421 9.32888 28.7421H21.6395C26.3794 28.7421 30.2574 24.9749 30.2574 20.3704V8.41151C30.2574 3.80697 26.3794 0.0397949 21.6395 0.0397949Z" fill="white"/>
<path d="M23.4865 8.41206C23.1213 8.41206 22.7643 8.30685 22.4606 8.10973C22.1569 7.91262 21.9202 7.63245 21.7805 7.30466C21.6407 6.97687 21.6041 6.61618 21.6754 6.26819C21.7466 5.92021 21.9225 5.60057 22.1808 5.34969C22.439 5.09881 22.7681 4.92796 23.1263 4.85874C23.4845 4.78952 23.8558 4.82505 24.1932 4.96082C24.5307 5.0966 24.8191 5.32653 25.022 5.62153C25.2249 5.91654 25.3332 6.26337 25.3332 6.61816C25.3337 6.85388 25.2863 7.08738 25.1937 7.30526C25.1011 7.52313 24.9651 7.72109 24.7935 7.88777C24.6219 8.05445 24.4181 8.18657 24.1939 8.27654C23.9696 8.36651 23.7292 8.41257 23.4865 8.41206ZM15.4846 9.60756C16.4586 9.60756 17.4107 9.88813 18.2206 10.4138C19.0304 10.9395 19.6616 11.6866 20.0344 12.5608C20.4071 13.4349 20.5046 14.3968 20.3146 15.3248C20.1246 16.2528 19.6556 17.1052 18.9668 17.7742C18.2781 18.4433 17.4006 18.8989 16.4453 19.0835C15.4901 19.2681 14.4999 19.1733 13.6 18.8113C12.7002 18.4492 11.931 17.836 11.3899 17.0493C10.8488 16.2626 10.56 15.3377 10.56 14.3915C10.5614 13.1231 11.0807 11.9071 12.0039 11.0102C12.9271 10.1134 14.1789 9.60892 15.4846 9.60756ZM15.4846 7.21592C14.0237 7.21592 12.5955 7.63676 11.3808 8.42522C10.1661 9.21368 9.21933 10.3344 8.66025 11.6455C8.10118 12.9567 7.9549 14.3994 8.23991 15.7914C8.52493 17.1833 9.22844 18.4619 10.2615 19.4654C11.2945 20.4689 12.6107 21.1523 14.0435 21.4292C15.4764 21.7061 16.9616 21.564 18.3113 21.0209C19.6611 20.4778 20.8147 19.558 21.6263 18.378C22.438 17.198 22.8712 15.8107 22.8712 14.3915C22.8712 12.4884 22.093 10.6633 20.7077 9.31759C19.3225 7.97191 17.4437 7.21592 15.4846 7.21592Z" fill="white"/>
</svg>
