<svg xmlns="http://www.w3.org/2000/svg" xml:space="preserve" viewBox="0 0 48 48" id="Influencer">
  <path fill="#5485eb" d="M36.4 34.93h-7.14l-19.8.22C4.63 36.13 1 40.4 1 45.53V47h46v-1.47c0-5.86-4.74-10.6-10.6-10.6z" class="coloreb5463 svgShape"></path>
  <path fill="#4474d9" d="M36.4 34.93h-1.44c5.86 0 10.6 4.74 10.6 10.6V47H47v-1.47c0-5.86-4.74-10.6-10.6-10.6z" class="colord94452 svgShape"></path>
  <path fill="#3c60ab" d="M24.41 1h-.82C15.79 1 9.48 7.32 9.48 15.11V37.73c0 5.11 4.15 9.26 9.26 9.26V34.93h19.79V15.11C38.52 7.32 32.21 1 24.41 1z" class="colorab673c svgShape"></path>
  <path fill="#0052ff" d="M17.3 46.88c.47.07.95.12 1.44.12V27.73H17.3v19.15zM24.41 1h-.82c-.1 0-.21.01-.31.02 7.65.17 13.8 6.41 13.8 14.1v19.81h1.44V15.11C38.52 7.32 32.21 1 24.41 1z" class="color934d2a svgShape"></path>
  <path fill="#ffffff" d="M33.28 14.54v7.86c0 3.17-1.59 5.97-4.02 7.64A9.264 9.264 0 0 1 24 31.68c-1.95 0-3.77-.61-5.26-1.65a9.25 9.25 0 0 1-4.01-7.63v-2.96s.37-5.48 6.44-9.79c0 0 2.31 4.89 12.11 4.89z" class="colorffbd9c svgShape"></path>
  <path fill="#89abf4" d="M21.17 9.65c-.34.24-.65.48-.95.73 1.08 1.36 4.2 4.17 11.63 4.17v7.86c0 3.17-1.59 5.97-4.02 7.64-1.35.93-2.96 1.48-4.69 1.59.28.03.57.04.86.04 1.95 0 3.76-.6 5.26-1.64a9.278 9.278 0 0 0 4.02-7.64v-7.86c-9.8 0-12.11-4.89-12.11-4.89z" class="colorf4a989 svgShape"></path>
  <path fill="#89abf4" d="M29.26 30.04v5.84c0 .17-.01.35-.03.52-.26 2.67-2.5 4.74-5.23 4.74s-4.98-2.08-5.23-4.74c-.02-.17-.03-.35-.03-.52v-5.85A9.248 9.248 0 0 0 24 31.68c1.95 0 3.76-.61 5.26-1.64z" class="colorf4a989 svgShape"></path>
  <path fill="#779be8" d="M27.82 30.84v5.04c0 .17-.01.35-.03.52-.23 2.43-2.12 4.35-4.51 4.68.24.03.47.07.72.07 2.73 0 4.98-2.08 5.23-4.74.02-.17.03-.35.03-.52v-5.84c-.45.3-.93.56-1.44.79z" class="colore89477 svgShape"></path>
  <path d="M24 32.18c-1.99 0-3.91-.6-5.55-1.74a9.758 9.758 0 0 1-4.22-8.04v-2.96c.02-.27.46-5.8 6.65-10.2.12-.09.27-.12.42-.08.14.04.26.14.33.27.02.04 2.34 4.61 11.66 4.61.28 0 .5.22.5.5v7.86a9.76 9.76 0 0 1-4.23 8.05A9.8 9.8 0 0 1 24 32.18zm-2.98-21.81c-5.38 4.06-5.79 9.05-5.8 9.1v2.93c0 2.88 1.42 5.58 3.79 7.21 2.95 2.04 7.01 2.04 9.96.01a8.772 8.772 0 0 0 3.8-7.22v-7.37c-7.84-.12-10.86-3.37-11.75-4.66z" fill="#000000" class="color000000 svgShape"></path>
  <path d="M24 41.64c-2.98 0-5.45-2.23-5.73-5.2-.02-.18-.03-.38-.03-.57v-5.85c0-.19.1-.36.27-.44.17-.09.36-.07.52.03 2.94 2.04 7.01 2.04 9.96.01.15-.11.35-.12.52-.03.16.09.27.26.27.44v5.84A5.757 5.757 0 0 1 24 41.64zm-4.76-10.71v4.95c0 .15.01.31.03.46.24 2.46 2.27 4.3 4.74 4.3s4.5-1.84 4.74-4.29c.02-.16.03-.32.03-.47v-4.94c-2.93 1.62-6.64 1.63-9.54-.01z" fill="#000000" class="color000000 svgShape"></path>
  <path d="M47 47.5H1c-.28 0-.5-.22-.5-.5v-1.47c0-5.25 3.73-9.83 8.86-10.88.27-.05.53.12.59.39.06.27-.12.54-.39.59-4.67.96-8.06 5.12-8.06 9.9v.97h45v-.97c0-5.57-4.53-10.1-10.1-10.1h-7.14c-.28 0-.5-.22-.5-.5s.22-.5.5-.5h7.14c6.12 0 11.1 4.98 11.1 11.1V47c0 .28-.22.5-.5.5z" fill="#000000" class="color000000 svgShape"></path>
  <path d="M18.74 47.5c-5.38 0-9.76-4.38-9.76-9.76V15.11C8.98 7.05 15.54.5 23.59.5h.82c8.06 0 14.61 6.56 14.61 14.61v19.81c0 .28-.22.5-.5.5s-.5-.22-.5-.5V15.11c0-7.51-6.11-13.61-13.61-13.61h-.82c-7.51 0-13.61 6.11-13.61 13.61v22.63c0 4.66 3.66 8.49 8.26 8.75V34.93c0-.28.22-.5.5-.5s.5.22.5.5V47c0 .28-.23.5-.5.5z" fill="#000000" class="color000000 svgShape"></path>
</svg>
