<svg xmlns="http://www.w3.org/2000/svg" viewBox="0 0 64 64" id="live">
  <defs>
    <linearGradient id="a" x1="4" x2="60" y1="32" y2="32" gradientUnits="userSpaceOnUse">
      <stop offset="0" stop-color="#ffde00"></stop>
      <stop offset="1" stop-color="#fd5900"></stop>
    </linearGradient>
  </defs>
  <path fill="url(#a)" d="M41.63923,25.23756H7.99992A3.99879,3.99879,0,0,0,4,29.23748V53.117A4.00524,4.00524,0,0,0,7.99992,57.1169H41.63923A4.0117,4.0117,0,0,0,45.63914,53.117V29.23748A4.0052,4.0052,0,0,0,41.63923,25.23756ZM32.4294,44.03716,22.20964,49.637a3.00635,3.00635,0,0,1-4.44992-2.70991l.25-11.63977a3.03266,3.03266,0,0,1,4.56995-2.50988l9.95971,6.04984A3.02744,3.02744,0,0,1,32.4294,44.03716ZM59.99883,30.05747l-.00005,22.23946a3.33362,3.33362,0,0,1-4.44987,3.1L47.6391,52.457s.00879-21.96333,0-22.56947l7.90981-2.93a3.29882,3.29882,0,0,1,4.44992,3.1ZM15.49244,10.31857a14.237,14.237,0,0,1,18.65824.09456,1.00039,1.00039,0,0,1-1.32219,1.50109A12.22576,12.22576,0,0,0,16.801,11.8311,1.0002,1.0002,0,0,1,15.49244,10.31857Zm14.39325,4.91781a7.74924,7.74924,0,0,0-10.17455-.04992,1.00014,1.00014,0,0,1-1.31837-1.50383,9.7082,9.7082,0,0,1,12.82389.06151,1.00657,1.00657,0,0,1-.666,1.74607A.99406.99406,0,0,1,29.88569,15.23638Zm-2.92426,3.32945a3.40041,3.40041,0,0,0-4.371-.02686,1.00032,1.00032,0,0,1-1.41072-.10013c-1.15084-1.69788,2.34336-2.7603,3.58313-2.70893,1.24024-.0563,4.78393,1.04646,3.61019,2.74949a1.00011,1.00011,0,0,1-1.4116.08643Zm-1.08964,2.48879a1.109,1.109,0,0,1-2.21778.00005A1.109,1.109,0,0,1,25.87179,21.05462Zm6.11762,20.3626a.99158.99158,0,0,1-.52.87L21.24964,47.88705a1.02133,1.02133,0,0,1-1.5-.91l.26-11.64972a.99536.99536,0,0,1,.52994-.86,1.00631,1.00631,0,0,1,1.01.02l9.94981,6.04986A1.00171,1.00171,0,0,1,31.98941,41.41722Z"></path>
</svg>
