<svg width="13" height="16" viewBox="0 0 13 16" fill="none" xmlns="http://www.w3.org/2000/svg">
<path d="M6.56625 3.40362C6.01159 3.40362 5.46938 3.56875 5.00819 3.87813C4.547 4.18751 4.18755 4.62725 3.97529 5.14173C3.76303 5.65622 3.70749 6.22234 3.8157 6.76851C3.92391 7.31468 4.19101 7.81637 4.58321 8.21014C4.97542 8.60391 5.47512 8.87207 6.01913 8.98071C6.56314 9.08935 7.12702 9.03359 7.63946 8.82049C8.15191 8.60738 8.5899 8.2465 8.89806 7.78348C9.20621 7.32045 9.37069 6.77609 9.37069 6.21922C9.37069 5.47247 9.07522 4.75631 8.54929 4.22829C8.02336 3.70026 7.31004 3.40362 6.56625 3.40362ZM6.56625 7.90857C6.23345 7.90857 5.90813 7.80949 5.63141 7.62386C5.3547 7.43824 5.13903 7.17439 5.01167 6.8657C4.88432 6.55701 4.85099 6.21734 4.91592 5.88964C4.98085 5.56193 5.1411 5.26092 5.37643 5.02466C5.61175 4.7884 5.91158 4.6275 6.23798 4.56232C6.56439 4.49713 6.90271 4.53059 7.21018 4.65845C7.51765 4.78632 7.78044 5.00284 7.96534 5.28066C8.15023 5.55847 8.24892 5.88509 8.24892 6.21922C8.24892 6.66726 8.07164 7.09696 7.75607 7.41377C7.44051 7.73059 7.01252 7.90857 6.56625 7.90857ZM6.56625 0.0249023C4.9305 0.0267654 3.36227 0.679977 2.20562 1.84123C1.04896 3.00249 0.39834 4.57695 0.396484 6.21922C0.396484 8.42946 1.41379 10.772 3.34115 12.9942C4.20717 13.9984 5.18188 14.9026 6.24725 15.6902C6.34155 15.7565 6.45391 15.7921 6.56906 15.7921C6.6842 15.7921 6.79656 15.7565 6.89087 15.6902C7.95427 14.9023 8.92709 13.9981 9.79136 12.9942C11.7159 10.772 12.736 8.42946 12.736 6.21922C12.7342 4.57695 12.0835 3.00249 10.9269 1.84123C9.77023 0.679977 8.20201 0.0267654 6.56625 0.0249023ZM6.56625 14.5252C5.40732 13.6102 1.51826 10.249 1.51826 6.21922C1.51826 4.87508 2.0501 3.58599 2.99678 2.63555C3.94346 1.6851 5.22744 1.15114 6.56625 1.15114C7.90506 1.15114 9.18904 1.6851 10.1357 2.63555C11.0824 3.58599 11.6142 4.87508 11.6142 6.21922C11.6142 10.2476 7.72519 13.6102 6.56625 14.5252Z" fill="white"/>
</svg>
