<svg width="28" height="28" viewBox="0 0 28 28" fill="none" xmlns="http://www.w3.org/2000/svg">
<g clip-path="url(#clip0_3587_20393)">
<path fill-rule="evenodd" clip-rule="evenodd" d="M2.02332 26.2493L13.4786 15.2245L17.5178 19.1104L3.89865 26.3949C3.38064 26.6734 2.7446 26.667 2.23314 26.3822C2.23314 26.3886 2.02332 26.2493 2.02332 26.2493ZM12.3245 14.1106L1.40039 24.6228V3.59838L12.3245 14.1106ZM19.1505 9.76901L24.488 12.6233C25.0125 12.9018 25.3404 13.4334 25.3404 14.003C25.3404 14.5726 25.0125 15.1042 24.488 15.3827L19.0062 18.3129L14.6392 14.1106C14.6326 14.1106 19.1505 9.76901 19.1505 9.76901ZM1.89873 1.85795C1.99709 1.76935 2.10856 1.68707 2.22659 1.61746C2.73804 1.33266 3.37408 1.32633 3.89209 1.6048L17.662 8.97157L13.4786 12.9967L1.89873 1.85795Z" fill="white"/>
</g>
<defs>
<clipPath id="clip0_3587_20393">
<rect width="28" height="28" fill="white"/>
</clipPath>
</defs>
</svg>
