<svg xmlns="http://www.w3.org/2000/svg" xml:space="preserve" viewBox="0 0 512 512" id="revenue">
  <linearGradient id="a" x1="72.711" x2="520.187" y1="557.679" y2="110.203" gradientUnits="userSpaceOnUse">
    <stop offset="0" stop-color="#fcc60e"></stop>
    <stop offset="1" stop-color="#e92e29"></stop>
  </linearGradient>
  <path fill="url(#a)" d="M64.762 209.578a7.997 7.997 0 0 1 .781-11.281L181.016 97.724a8 8 0 0 1 9.264-.886l84.468 41.664L405.773 37.359l-17.883.03a7.97 7.97 0 0 1 0-15.938l40.178-.067a7.97 7.97 0 0 1 7.816 9.526l.028.005-7.87 39.4a7.997 7.997 0 1 1-15.687-3.125l3.486-17.451L280.788 153.99a7.982 7.982 0 0 1-8.641 1.025l-84.631-41.745-111.473 97.089a7.996 7.996 0 0 1-11.281-.781zM512 141.301a23.167 23.167 0 0 1-5.726 15.271A23.177 23.177 0 0 1 512 171.844v11.212a23.167 23.167 0 0 1-5.726 15.271A23.177 23.177 0 0 1 512 213.599v11.212a23.167 23.167 0 0 1-5.726 15.271A23.17 23.17 0 0 1 512 255.353v11.212a23.167 23.167 0 0 1-5.726 15.271A23.17 23.17 0 0 1 512 297.107v11.212a23.167 23.167 0 0 1-5.726 15.271A23.179 23.179 0 0 1 512 338.862v11.212a23.167 23.167 0 0 1-5.726 15.271A23.17 23.17 0 0 1 512 380.616v11.212a23.167 23.167 0 0 1-5.726 15.271A23.179 23.179 0 0 1 512 422.371v11.211a23.171 23.171 0 0 1-5.726 15.272A23.176 23.176 0 0 1 512 464.125v11.212c0 12.832-10.439 23.271-23.271 23.271h-95.987c-12.832 0-23.271-10.439-23.271-23.271v-6.708a95.384 95.384 0 0 1-23.001 2.807 95.562 95.562 0 0 1-19.204-1.94v5.841c0 12.832-10.439 23.271-23.271 23.271h-95.987c-12.832 0-23.272-10.439-23.272-23.271v-11.212a23.167 23.167 0 0 1 5.726-15.271 23.175 23.175 0 0 1-5.726-15.272v-11.211a23.171 23.171 0 0 1 5.726-15.272 23.17 23.17 0 0 1-5.726-15.271v-11.212a23.167 23.167 0 0 1 5.726-15.271 23.176 23.176 0 0 1-5.726-15.271v-11.212a23.171 23.171 0 0 1 5.726-15.272 23.17 23.17 0 0 1-5.726-15.271V297.11a23.167 23.167 0 0 1 5.726-15.271 23.175 23.175 0 0 1-5.726-15.272v-11.211a23.171 23.171 0 0 1 5.726-15.272 23.176 23.176 0 0 1-5.726-15.271V213.6c0-12.832 10.44-23.272 23.272-23.272h95.987c12.832 0 23.271 10.44 23.271 23.272v11.212a23.167 23.167 0 0 1-5.726 15.271 23.177 23.177 0 0 1 5.726 15.272v11.211a23.173 23.173 0 0 1-5.735 15.283c.439.502.85 1.029 1.246 1.569a95.34 95.34 0 0 1 23.693-2.976 95.208 95.208 0 0 1 26.862 3.852c.57-.86 1.193-1.681 1.867-2.453a23.17 23.17 0 0 1-5.728-15.273v-11.212a23.167 23.167 0 0 1 5.726-15.271 23.17 23.17 0 0 1-5.726-15.271V213.6a23.171 23.171 0 0 1 5.726-15.272 23.176 23.176 0 0 1-5.726-15.271v-11.212a23.171 23.171 0 0 1 5.726-15.272 23.176 23.176 0 0 1-5.726-15.271V130.09c0-12.832 10.439-23.272 23.271-23.272h95.987c12.832 0 23.271 10.44 23.271 23.272v11.211zm-311.265 83.511c0 4.01 3.262 7.271 7.272 7.271h95.987c4.01 0 7.271-3.262 7.271-7.271V213.6c0-4.01-3.262-7.272-7.271-7.272h-95.987c-4.01 0-7.272 3.262-7.272 7.272v11.212zm0 41.754c0 4.01 3.262 7.272 7.272 7.272h95.987c4.01 0 7.271-3.263 7.271-7.272v-11.211c0-4.01-3.262-7.272-7.271-7.272h-95.987c-4.01 0-7.272 3.262-7.272 7.272v11.211zm0 41.756c0 4.01 3.262 7.271 7.272 7.271h64.503c8.79-10.752 19.87-19.561 32.493-25.67a7.177 7.177 0 0 0-1.009-.084h-95.987c-4.01 0-7.272 3.262-7.272 7.271v11.212zm0 41.756c0 4.01 3.262 7.271 7.272 7.271h44.784a94.76 94.76 0 0 1 9.121-25.756h-53.905c-4.01 0-7.272 3.263-7.272 7.272v11.213zm0 41.755c0 4.01 3.262 7.271 7.272 7.271l.019.001h45.789a95.38 95.38 0 0 1-2.81-25.756h-42.998c-4.01 0-7.272 3.262-7.272 7.271v11.213zm0 41.755c0 4.01 3.262 7.272 7.272 7.272h68.489a95.812 95.812 0 0 1-17.123-25.755h-51.366v-.001c-4.01 0-7.271 3.263-7.271 7.272v11.212zm110.53 31.129a95.24 95.24 0 0 1-15.458-7.857h-87.8c-4.01 0-7.272 3.262-7.272 7.271v11.212c0 4.01 3.262 7.271 7.272 7.271h95.987c4.01 0 7.271-3.262 7.271-7.271v-10.626zm35.204-9.275c43.836 0 79.5-35.663 79.5-79.5s-35.664-79.5-79.5-79.5c-43.837 0-79.5 35.663-79.5 79.5s35.663 79.5 79.5 79.5zM496 464.132c0-4.01-3.262-7.271-7.271-7.271v.001h-91.6a95.297 95.297 0 0 1-11.573 6.21 7.174 7.174 0 0 0-.086 1.061v11.212c0 4.01 3.262 7.271 7.271 7.271h95.987c4.01 0 7.271-3.262 7.271-7.271v-11.213zm0-41.755c0-4.01-3.262-7.272-7.271-7.272v.001h-55.164a95.836 95.836 0 0 1-17.124 25.756h72.268l.019-.001c4.01 0 7.271-3.263 7.271-7.272v-11.212zm0-41.756c0-4.01-3.262-7.271-7.271-7.271v.001h-46.796a95.38 95.38 0 0 1-2.81 25.755h49.587l.019-.001c4.01 0 7.271-3.262 7.271-7.271v-11.213zm0-41.755c0-4.01-3.262-7.272-7.271-7.272v.001h-57.703a94.76 94.76 0 0 1 9.121 25.756h48.563l.019-.001c4.01 0 7.271-3.262 7.271-7.271v-11.213zm0-41.756c0-4.01-3.262-7.271-7.271-7.271h-95.987a7.222 7.222 0 0 0-3.33.819 96.114 96.114 0 0 1 31.016 24.936h68.282l.019-.001c4.01 0 7.271-3.262 7.271-7.271V297.11zm0-41.755c0-4.01-3.262-7.271-7.271-7.271h-95.987c-4.01 0-7.271 3.262-7.271 7.271v11.212c0 4.01 3.262 7.271 7.271 7.271h95.987c4.01 0 7.271-3.262 7.271-7.271v-11.212zm0-41.755c0-4.01-3.262-7.272-7.271-7.272h-95.987c-4.01 0-7.271 3.262-7.271 7.272v11.212c0 4.01 3.262 7.271 7.271 7.271H488.73c4.01 0 7.271-3.262 7.271-7.271V213.6zm0-41.755c0-4.01-3.262-7.272-7.271-7.272h-95.987c-4.01 0-7.271 3.262-7.271 7.272v11.212c0 4.01 3.262 7.271 7.271 7.271h95.987c4.01 0 7.271-3.262 7.271-7.271v-11.212zm0-41.756c0-4.01-3.262-7.272-7.271-7.272h-95.987c-4.01 0-7.271 3.262-7.271 7.272v11.212c0 4.01 3.262 7.271 7.271 7.271h95.987c4.01 0 7.271-3.262 7.271-7.271v-11.212zM368.467 374.547c-6.27-3.786-13.768-5.668-20.637-6.796-7.242-1.189-18.104-3.663-18.544-12.766-.363-7.476 6.163-12.277 12.84-13.621 9.201-1.852 19.016 2.248 22.728 11.09a7.997 7.997 0 0 0 10.469 4.281 7.997 7.997 0 0 0 4.281-10.469c-4.7-11.195-13.65-17.664-23.489-20.158a37.3 37.3 0 0 0-1.646-.377v-5.161a8 8 0 0 0-16 0v5.278c-14.285 3.087-25.859 14.685-25.121 29.886.836 17.21 16.721 25.271 31.919 27.766 5.206.855 10.756 2.201 14.949 4.733 6.421 3.877 8.998 13.136 2.385 18.155-7.987 6.061-21.349 6.255-29.635.735-3.273-2.18-5.774-5.367-6.818-9.552a7.982 7.982 0 0 0-15.5 3.812c2.094 8.399 7.044 14.749 13.505 19.052 4.252 2.832 9.165 4.735 14.315 5.711v5.164a8 8 0 0 0 16 0v-5.01c6.309-1.038 12.699-3.388 17.757-7.226 15.563-11.804 12.16-34.916-3.758-44.527zM142.531 297.11v11.212a23.167 23.167 0 0 1-5.726 15.271 23.175 23.175 0 0 1 5.726 15.272v11.212a23.167 23.167 0 0 1-5.726 15.271 23.176 23.176 0 0 1 5.726 15.271v11.212a23.167 23.167 0 0 1-5.726 15.271 23.175 23.175 0 0 1 5.726 15.272v11.211a23.17 23.17 0 0 1-5.726 15.272 23.17 23.17 0 0 1 5.726 15.271v11.212c0 12.832-10.44 23.271-23.272 23.271H23.271C10.439 498.615 0 488.176 0 475.344v-11.212a23.167 23.167 0 0 1 5.726-15.271A23.174 23.174 0 0 1 0 433.588v-11.211a23.171 23.171 0 0 1 5.726-15.272A23.171 23.171 0 0 1 0 391.833v-11.212a23.167 23.167 0 0 1 5.726-15.271A23.171 23.171 0 0 1 0 350.078v-11.212a23.171 23.171 0 0 1 5.726-15.272A23.171 23.171 0 0 1 0 308.322V297.11c0-12.832 10.439-23.271 23.271-23.271h95.987c12.833 0 23.273 10.439 23.273 23.271zm-16 167.022c0-4.01-3.262-7.271-7.272-7.271H23.271c-4.01 0-7.271 3.262-7.271 7.271v11.212c0 4.01 3.262 7.271 7.271 7.271h95.987c4.01 0 7.272-3.262 7.272-7.271v-11.212zm0-41.755c0-4.01-3.262-7.272-7.272-7.272v.001H23.271v-.001c-4.01 0-7.271 3.263-7.271 7.272v11.211c0 4.01 3.262 7.272 7.271 7.272h95.987c4.01 0 7.272-3.263 7.272-7.272v-11.211zm0-41.756c0-4.01-3.262-7.271-7.272-7.271H23.271c-4.01 0-7.271 3.262-7.271 7.271v11.212c0 4.01 3.262 7.271 7.271 7.271l.019.001h95.949l.019-.001c4.01 0 7.272-3.262 7.272-7.271v-11.212zm0-41.755c0-4.01-3.262-7.272-7.272-7.272H23.271c-4.01 0-7.271 3.263-7.271 7.272v11.212c0 4.01 3.262 7.271 7.271 7.271h95.987c4.01 0 7.272-3.262 7.272-7.271v-11.212zm0-41.756c0-4.01-3.262-7.271-7.272-7.271H23.271c-4.01 0-7.271 3.262-7.271 7.271v11.212c0 4.01 3.262 7.271 7.271 7.271h95.987c4.01 0 7.272-3.262 7.272-7.271V297.11z"></path>
</svg>
