<svg xmlns="http://www.w3.org/2000/svg" enable-background="new 0 0 32 32" viewBox="0 0 32 32" id="Store">
  <path d="M14.268 16.526l-.194.194c-.195.195-.195.512 0 .707.098.098.226.146.354.146s.256-.049.354-.146l.194-.194c.195-.195.195-.512 0-.707S14.463 16.331 14.268 16.526zM12.073 16.277l-.194.194c-.195.195-.195.512 0 .707.098.098.226.146.354.146s.256-.049.354-.146l.194-.194c.195-.195.195-.512 0-.707S12.269 16.082 12.073 16.277z" fill="#fffcfc" class="color000000 svgShape"></path>
  <path d="M28.478,11.393c-0.007-0.031-0.008-0.063-0.02-0.092c-0.001-0.001,0-0.003-0.001-0.004l-2-4.5   C26.377,6.616,26.197,6.5,26,6.5h-2V5c0-0.276-0.224-0.5-0.5-0.5h-15C8.224,4.5,8,4.724,8,5v1.5H6   c-0.197,0-0.377,0.116-0.457,0.297l-2,4.5c-0.001,0.001,0,0.003-0.001,0.004c-0.012,0.028-0.014,0.061-0.02,0.092   c-0.008,0.035-0.021,0.068-0.021,0.103c0,0.001-0.001,0.003-0.001,0.004v1c0,1.103,0.897,2,2,2v10H4c-0.276,0-0.5,0.224-0.5,0.5v2   c0,0.276,0.224,0.5,0.5,0.5h24c0.276,0,0.5-0.224,0.5-0.5v-2c0-0.276-0.224-0.5-0.5-0.5h-1.5v-10c1.103,0,2-0.897,2-2v-1   c0-0.001-0.001-0.003-0.001-0.004C28.499,11.462,28.486,11.428,28.478,11.393z M24.5,12.5c0,0.551-0.448,1-1,1s-1-0.449-1-1v-1   c0-0.019-0.009-0.035-0.011-0.053c-0.002-0.019,0.003-0.036-0.001-0.055L21.623,7.5h1.516l1.36,4.082V12.5z M7.5,11.582L8.86,7.5   h1.516l-0.865,3.892c-0.004,0.019,0.001,0.037-0.001,0.055C9.509,11.465,9.5,11.481,9.5,11.5v1c0,0.551-0.448,1-1,1s-1-0.449-1-1   V11.582z M15.5,11.5v1c0,0.551-0.448,1-1,1s-1-0.449-1-1v-0.971L13.947,7.5H15.5V11.5z M12.503,11.445   c-0.001,0.01,0.003,0.018,0.003,0.028C12.505,11.482,12.5,11.49,12.5,11.5v1c0,0.551-0.448,1-1,1s-1-0.449-1-1v-0.944L11.401,7.5   h1.54L12.503,11.445z M9.5,14.222c0.189-0.11,0.357-0.249,0.5-0.413c0.367,0.42,0.9,0.691,1.5,0.691s1.133-0.271,1.5-0.691   c0.247,0.283,0.57,0.493,0.94,0.602l-0.647,0.647c-0.195,0.195-0.195,0.512,0,0.707c0.098,0.098,0.226,0.146,0.354,0.146   s0.256-0.049,0.354-0.146l1.594-1.594c0.153-0.1,0.286-0.225,0.406-0.362c0.143,0.164,0.311,0.303,0.5,0.413v0.071L15.293,15.5   c-0.195,0.195-0.195,0.512,0,0.707c0.098,0.098,0.226,0.146,0.354,0.146s0.256-0.049,0.354-0.146l0.5-0.5V20.5h-7V14.222z    M16.5,12.5v-1v-4h1.553l0.447,4.029V12.5c0,0.551-0.448,1-1,1S16.5,13.051,16.5,12.5z M19.495,11.473   c0-0.01,0.004-0.018,0.003-0.028L19.059,7.5h1.54l0.901,4.056V12.5c0,0.551-0.448,1-1,1s-1-0.449-1-1v-1   C19.5,11.49,19.495,11.482,19.495,11.473z M9,5.5h14v1h-2h-2.5h-5H11H9V5.5z M4.5,12.5v-0.894L6.325,7.5h1.481l-1.281,3.842   c-0.009,0.027-0.006,0.054-0.01,0.082C6.511,11.449,6.5,11.473,6.5,11.5v1c0,0.551-0.448,1-1,1S4.5,13.051,4.5,12.5z M27.5,26.5   h-23v-1H6h14h4h2h1.5V26.5z M23.5,24.5h-3v-6h3V24.5z M25.5,24.5h-1V18c0-0.276-0.224-0.5-0.5-0.5h-4c-0.276,0-0.5,0.224-0.5,0.5   v6.5h-13V14.222c0.189-0.11,0.357-0.249,0.5-0.413c0.367,0.42,0.9,0.691,1.5,0.691V21c0,0.276,0.224,0.5,0.5,0.5h8   c0.276,0,0.5-0.224,0.5-0.5v-6.5c0.6,0,1.133-0.271,1.5-0.691c0.367,0.42,0.9,0.691,1.5,0.691s1.133-0.271,1.5-0.691   c0.367,0.42,0.9,0.691,1.5,0.691s1.133-0.271,1.5-0.691c0.143,0.164,0.311,0.303,0.5,0.413V24.5z M26.5,13.5c-0.552,0-1-0.449-1-1   v-1c0-0.027-0.011-0.051-0.015-0.077c-0.004-0.027-0.001-0.055-0.01-0.082L24.194,7.5h1.481l1.825,4.106V12.5   C27.5,13.051,27.052,13.5,26.5,13.5z" fill="#fffcfc" class="color000000 svgShape"></path>
</svg>
